# xmcd
#
# Track frame offsets:
#	150
#	14325
#	30971
#	48669
#	58970
#	75901
#	90984
#	106576
#	124377
#	140691
#	157999
#	169722
#	181657
#	201775
#	213896
#	228323
#	242312
#	256710
#	271058
#	287823
#
# Disc length: 3973 seconds
#
# Revision: 3
# Processed by: cddbd v1.5.1PL2 Copyright (c) Steve Scherf et al.
# Submitted via: audiograbber 1.83.01
#
DISCID=f80f8314
DTITLE=Various Artist - The Ultimate Raggae Party Album CD1
DYEAR=2003
DGENRE=Reggae
TTITLE0=Shaggy - Mr Boombastic '95
TTITLE1=Pato Banton with ALi and Robin Campbell - Baby Come Back '94
TTITLE2=Chaka Demus and Pliers - Twist And Shout '93
TTITLE3=Madness - One Step Beyond '79
TTITLE4=Bitty Mclean - It Keeps Rainin' '93
TTITLE5=Wayne Wonder - No Letting Go '03
TTITLE6=Mr Vegas - Head High '98
TTITLE7=Ini Kamoze - Here Comes The Hotstepper '95
TTITLE8=Diana King - Shy Guy '95
TTITLE9=Althea and Donna - Uptown Top Rankin' '77
TTITLE10=Desmond Dekker - You Can Get It If You Really Want '70
TTITLE11=The Maytones - Brown Girl In The Ring '72
TTITLE12=Inner Circle - I Shot The Sheriff '75
TTITLE13=The Paragons - The Tide Is High '67
TTITLE14=Musical Youth - Pass The Dutchie '82
TTITLE15=Jimmy London - A Little Love '78
TTITLE16=Dawn Penn - You Don't Love Me (No No No) '96
TTITLE17=Red Dragon - Compliments On Your Kiss '94
TTITLE18=Easther Bennet - The First Time Ever I Saw Your Face '02
TTITLE19=Bob Marley - Sun Is Shining '70
EXTD=3 CDs\nSanctuary Records Group Ltd.\nEAN 5050441600692\nLC6448
EXTT0=
EXTT1=
EXTT2=
EXTT3=
EXTT4=
EXTT5=
EXTT6=
EXTT7=
EXTT8=
EXTT9=
EXTT10=
EXTT11=
EXTT12=
EXTT13=
EXTT14=
EXTT15=
EXTT16=
EXTT17=
EXTT18=
EXTT19=
PLAYORDER=
